<svg id="svg" version="1.1" xmlns="http://www.w3.org/2000/svg" xmlns:xlink="http://www.w3.org/1999/xlink" width="400" height="37.56345177664974" viewBox="0, 0, 400,37.56345177664974"><g id="svgg"><path id="path0" d="M25.719 15.398 L 25.719 28.088 29.103 28.088 L 32.487 28.088 32.487 23.034 C 32.487 16.811,32.858 15.585,34.747 15.572 C 36.378 15.561,36.548 16.201,36.548 22.359 L 36.548 28.088 39.957 28.088 L 43.366 28.088 43.257 21.235 C 43.159 15.109,43.075 14.261,42.470 13.233 C 40.597 10.052,36.649 9.614,33.643 12.254 L 32.487 13.268 32.487 7.988 L 32.487 2.707 29.103 2.707 L 25.719 2.707 25.719 15.398 M126.565 15.398 L 126.565 28.088 129.949 28.088 L 133.333 28.088 133.333 23.632 C 133.333 21.182,133.420 19.263,133.526 19.369 C 133.632 19.475,134.539 21.442,135.541 23.740 L 137.364 27.919 141.287 28.014 L 145.209 28.110 142.755 23.431 L 140.302 18.752 142.560 14.875 L 144.818 10.998 141.050 10.902 C 138.978 10.849,137.180 10.925,137.056 11.071 C 136.932 11.217,136.081 13.088,135.166 15.228 L 133.503 19.120 133.412 10.914 L 133.321 2.707 129.943 2.707 L 126.565 2.707 126.565 15.398 M208.122 7.399 L 208.122 12.091 206.514 11.265 C 202.713 9.313,197.808 11.822,196.589 16.342 C 194.284 24.884,201.691 31.981,207.356 26.659 L 208.122 25.940 208.122 27.014 L 208.122 28.088 211.675 28.088 L 215.228 28.088 215.228 15.398 L 215.228 2.707 211.675 2.707 L 208.122 2.707 208.122 7.399 M100.330 3.500 C 98.340 4.402,97.926 6.817,99.465 8.540 C 101.593 10.921,106.261 9.472,106.261 6.430 C 106.261 3.995,102.899 2.334,100.330 3.500 M2.707 6.937 L 2.707 9.814 6.091 9.814 L 9.475 9.814 9.475 18.951 L 9.475 28.088 12.860 28.088 L 16.244 28.088 16.244 18.951 L 16.244 9.814 19.628 9.814 L 23.012 9.814 23.012 6.937 L 23.012 4.061 12.860 4.061 L 2.707 4.061 2.707 6.937 M76.142 16.074 L 76.142 28.088 79.695 28.088 L 83.249 28.088 83.249 23.858 C 83.249 17.800,85.056 18.167,87.409 24.704 L 88.567 27.919 92.507 28.014 C 94.674 28.067,96.447 28.039,96.447 27.953 C 96.447 25.906,92.521 18.588,91.037 17.869 L 89.959 17.347 91.503 16.600 C 95.023 14.896,96.370 11.140,94.670 7.772 C 93.205 4.870,90.360 4.061,81.614 4.061 L 76.142 4.061 76.142 16.074 M229.103 16.074 L 229.103 28.088 232.181 28.088 L 235.260 28.088 235.142 18.983 C 235.078 13.975,235.140 9.949,235.279 10.035 C 235.419 10.122,235.529 10.450,235.524 10.764 C 235.519 11.079,236.466 15.106,237.628 19.712 L 239.741 28.088 243.038 28.088 L 246.336 28.088 246.720 26.661 C 246.932 25.876,247.924 21.818,248.926 17.644 C 249.928 13.469,250.800 10.001,250.864 9.937 C 250.928 9.873,250.911 13.931,250.826 18.954 L 250.672 28.088 254.270 28.088 L 257.868 28.088 257.868 16.074 L 257.868 4.061 252.645 4.061 C 247.965 4.061,247.405 4.122,247.246 4.653 C 246.717 6.428,243.993 18.627,243.993 19.223 C 243.993 19.610,243.841 20.020,243.655 20.135 C 243.463 20.254,243.316 19.968,243.316 19.474 C 243.316 18.782,240.505 7.162,239.731 4.653 C 239.567 4.123,239.004 4.061,234.326 4.061 L 229.103 4.061 229.103 16.074 M347.265 9.391 C 346.282 12.322,344.444 17.728,343.183 21.404 L 340.889 28.088 344.675 28.088 L 348.461 28.088 349.057 25.888 L 349.652 23.689 353.300 23.689 L 356.949 23.689 357.173 24.619 C 357.297 25.131,357.548 26.121,357.731 26.819 L 358.063 28.088 361.773 28.088 C 363.813 28.088,365.482 27.974,365.483 27.834 C 365.483 27.695,363.778 22.288,361.694 15.821 L 357.905 4.061 353.479 4.061 L 349.054 4.061 347.265 9.391 M368.866 16.039 L 368.866 28.088 372.250 28.088 L 375.635 28.088 375.635 24.244 L 375.635 20.400 378.479 20.223 C 385.448 19.788,389.305 15.413,387.842 9.603 C 386.741 5.232,384.631 4.290,375.550 4.117 L 368.866 3.990 368.866 16.039 M391.201 16.074 L 391.201 28.088 394.755 28.088 L 398.308 28.088 398.308 16.074 L 398.308 4.061 394.755 4.061 L 391.201 4.061 391.201 16.074 M304.907 6.101 C 304.442 6.263,303.185 6.642,302.115 6.944 L 300.169 7.493 300.169 9.161 L 300.169 10.829 298.985 10.829 L 297.800 10.829 297.800 13.367 L 297.800 15.905 298.985 15.905 L 300.169 15.905 300.184 19.036 C 300.218 26.296,302.107 28.684,307.518 28.310 C 310.674 28.093,310.660 28.106,310.660 25.429 L 310.660 23.148 309.471 23.287 C 307.531 23.513,307.276 23.043,307.276 19.248 L 307.276 15.905 308.968 15.905 L 310.660 15.905 310.660 13.367 L 310.660 10.829 308.968 10.829 L 307.276 10.829 307.276 8.291 C 307.276 5.513,307.090 5.341,304.907 6.101 M87.011 9.439 C 89.060 11.099,87.421 14.552,84.583 14.552 L 83.249 14.552 83.249 11.675 L 83.249 8.799 84.734 8.799 C 85.687 8.799,86.503 9.028,87.011 9.439 M353.638 9.906 C 353.638 10.328,354.074 12.460,354.606 14.643 L 355.574 18.613 353.213 18.613 C 350.930 18.613,350.858 18.587,351.053 17.851 C 351.163 17.432,351.676 15.301,352.192 13.116 C 353.071 9.393,353.638 8.134,353.638 9.906 M379.149 9.519 C 382.161 10.892,380.720 15.228,377.251 15.228 L 375.635 15.228 375.635 12.183 L 375.635 9.137 376.972 9.137 C 377.708 9.137,378.688 9.309,379.149 9.519 M51.783 11.153 C 44.558 13.647,44.036 24.944,51.021 27.639 C 52.948 28.383,58.359 28.474,60.321 27.797 L 61.591 27.359 61.591 25.315 C 61.591 23.353,61.560 23.281,60.829 23.502 C 57.037 24.649,52.792 23.598,52.792 21.511 C 52.792 21.406,55.171 21.320,58.080 21.320 L 63.367 21.320 63.215 18.528 C 62.868 12.148,57.999 9.007,51.783 11.153 M115.646 10.836 C 104.211 13.732,107.454 29.352,119.273 28.302 C 123.285 27.946,123.181 28.024,123.181 25.367 L 123.181 23.064 120.657 23.255 L 118.133 23.446 116.934 22.247 C 113.544 18.857,117.765 13.799,122.110 16.045 L 123.181 16.599 123.181 13.903 C 123.181 12.421,123.032 11.115,122.849 11.002 C 122.246 10.630,116.945 10.508,115.646 10.836 M159.986 11.008 C 156.969 11.609,157.022 11.553,157.022 14.100 C 157.022 16.079,157.085 16.290,157.614 16.070 C 161.095 14.623,163.779 14.510,165.026 15.757 C 166.138 16.869,166.167 16.851,162.261 17.437 C 157.164 18.203,155.330 19.722,155.330 23.181 C 155.330 28.112,161.916 30.383,164.698 26.411 C 165.414 25.389,165.821 25.567,165.821 26.904 L 165.821 28.088 168.866 28.088 L 171.912 28.088 171.905 21.912 C 171.892 11.505,169.319 9.151,159.986 11.008 M185.890 10.846 C 185.296 11.028,184.268 11.688,183.606 12.312 L 182.403 13.447 182.403 12.138 L 182.403 10.829 178.849 10.829 L 175.296 10.829 175.296 19.459 L 175.296 28.088 178.849 28.088 L 182.403 28.088 182.403 22.580 C 182.403 16.405,182.646 15.567,184.433 15.567 C 186.221 15.567,186.464 16.405,186.464 22.580 L 186.464 28.088 190.057 28.088 L 193.650 28.088 193.496 21.574 C 193.265 11.843,191.367 9.166,185.890 10.846 M268.269 10.837 C 262.883 12.197,260.313 17.107,262.004 22.803 C 264.087 29.817,276.867 30.323,280.075 23.519 C 283.587 16.073,276.726 8.702,268.269 10.837 M293.880 10.964 C 293.305 11.218,292.431 11.939,291.938 12.566 L 291.040 13.706 291.036 12.267 L 291.032 10.829 287.479 10.829 L 283.926 10.829 283.926 19.459 L 283.926 28.088 287.479 28.088 L 291.032 28.088 291.032 23.155 L 291.032 18.222 292.021 17.233 C 292.880 16.374,293.262 16.244,294.912 16.244 L 296.812 16.244 296.714 13.452 C 296.604 10.320,296.179 9.946,293.880 10.964 M98.816 19.459 L 98.816 28.088 102.369 28.088 L 105.922 28.088 105.922 19.459 L 105.922 10.829 102.369 10.829 L 98.816 10.829 98.816 19.459 M314.602 19.364 C 318.376 28.504,318.478 28.994,316.914 30.463 C 316.200 31.134,315.858 31.206,314.210 31.036 L 312.323 30.841 312.422 33.272 L 312.521 35.702 314.508 36.001 C 320.885 36.958,322.614 35.052,327.261 21.948 C 328.935 17.229,330.530 12.791,330.806 12.086 L 331.307 10.805 327.867 10.902 L 324.428 10.998 323.033 16.751 L 321.639 22.504 320.520 17.846 C 319.905 15.285,319.255 12.658,319.076 12.009 L 318.750 10.829 314.914 10.829 L 311.079 10.829 314.602 19.364 M56.664 15.642 C 57.752 17.195,57.407 17.597,54.992 17.597 C 52.696 17.597,52.497 17.437,53.181 16.137 C 53.960 14.656,55.791 14.396,56.664 15.642 M207.492 16.214 C 208.688 17.182,208.675 21.195,207.471 22.477 C 205.979 24.065,203.964 23.475,203.372 21.276 C 202.326 17.390,204.955 14.159,207.492 16.214 M273.061 16.208 C 275.201 18.348,273.721 23.553,271.047 23.289 C 267.437 22.933,267.673 15.567,271.294 15.567 C 271.947 15.567,272.689 15.836,273.061 16.208 M165.821 20.762 C 165.821 23.168,163.230 25.023,161.827 23.621 C 161.308 23.102,161.300 21.435,161.815 21.117 C 163.014 20.376,165.821 20.127,165.821 20.762 " stroke="none" fill="#000000" fill-rule="evenodd"></path></g></svg>