<svg id="svg" xmlns="http://www.w3.org/2000/svg" xmlns:xlink="http://www.w3.org/1999/xlink" width="400" height="57.62304921968788" viewBox="0, 0, 400,57.62304921968788"><g id="svgg"><path id="path0" d="M23.153 2.137 C 1.576 7.361,-5.362 34.739,11.114 49.649 C 29.322 66.126,58.182 52.251,57.041 27.569 C 56.247 10.401,39.848 -1.906,23.153 2.137 M35.573 5.682 C 52.700 10.153,58.773 31.457,46.793 45.035 L 44.553 47.573 43.727 45.996 L 42.902 44.418 44.906 42.497 C 52.635 35.089,41.150 21.271,32.753 27.875 C 29.272 30.614,27.086 40.660,29.854 41.197 C 30.774 41.375,34.409 44.658,33.687 44.658 C 33.163 44.658,31.805 48.066,31.590 49.921 C 31.510 50.605,30.744 48.579,29.772 45.120 L 28.091 39.136 25.813 38.415 C 23.043 37.540,23.024 37.391,25.457 35.685 C 26.695 34.818,27.317 34.048,27.194 33.535 C 27.080 33.059,27.356 32.643,27.876 32.507 C 28.491 32.347,28.672 31.981,28.487 31.274 C 28.283 30.494,28.530 30.153,29.595 29.748 L 30.965 29.227 29.648 28.428 C 28.049 27.457,27.996 27.079,29.412 26.724 C 32.013 26.070,32.504 25.166,30.750 24.259 L 29.145 23.429 30.659 22.244 C 32.472 20.825,32.583 20.168,31.012 20.168 C 28.533 20.168,28.218 19.745,29.340 17.928 C 30.539 15.989,30.380 15.639,28.607 16.313 C 26.566 17.089,26.411 16.955,26.411 14.406 C 26.411 11.578,25.940 11.420,23.529 13.438 L 21.849 14.845 20.366 13.100 L 18.884 11.355 18.308 13.645 C 17.866 15.398,17.556 15.868,16.984 15.649 C 14.661 14.757,13.765 14.736,14.089 15.579 C 15.182 18.427,15.111 18.574,12.480 18.923 L 10.003 19.251 11.244 20.878 C 12.804 22.923,12.795 23.080,11.044 24.250 C 9.498 25.283,9.200 25.930,10.271 25.930 C 10.638 25.930,11.448 26.344,12.072 26.850 L 13.205 27.770 12.125 28.922 C 10.762 30.375,10.773 30.560,12.245 30.929 C 13.190 31.167,13.445 31.536,13.445 32.662 C 13.445 33.795,13.655 34.094,14.451 34.094 C 15.050 34.094,15.557 34.479,15.706 35.049 C 15.843 35.574,16.160 35.877,16.410 35.723 C 16.954 35.387,19.688 36.447,19.688 36.994 C 19.688 37.205,18.621 37.732,17.317 38.165 L 14.947 38.953 13.887 42.520 L 12.828 46.088 10.920 43.572 C -2.976 25.252,13.505 -0.078,35.573 5.682 M88.355 29.316 L 88.355 39.904 91.116 39.760 L 93.878 39.616 94.118 35.054 C 94.376 30.140,94.655 29.292,96.011 29.292 C 97.171 29.292,97.465 30.574,97.472 35.678 L 97.479 39.904 100.240 39.760 L 103.001 39.616 102.843 33.854 C 102.622 25.789,100.654 23.468,96.064 25.861 L 94.118 26.875 94.118 22.801 L 94.118 18.727 91.236 18.727 L 88.355 18.727 88.355 29.316 M150.410 19.318 C 148.654 20.165,148.470 22.044,150.014 23.372 C 151.535 24.680,152.561 24.774,154.035 23.742 C 156.991 21.672,153.745 17.711,150.410 19.318 M172.019 29.172 L 172.149 39.616 174.910 39.760 L 177.671 39.904 177.671 36.182 C 177.671 31.991,177.968 32.001,179.742 36.251 C 181.043 39.367,181.592 39.723,185.234 39.808 C 187.763 39.867,187.770 39.640,185.380 35.285 C 183.739 32.294,183.568 31.711,184.105 30.922 C 184.446 30.422,185.319 28.986,186.045 27.731 L 187.366 25.450 184.179 25.450 L 180.992 25.450 179.616 28.358 L 178.241 31.266 177.895 24.997 L 177.548 18.727 174.719 18.727 L 171.890 18.727 172.019 29.172 M240.096 22.381 L 240.096 26.034 238.776 25.647 C 234.058 24.261,230.015 27.335,230.013 32.308 C 230.011 37.709,234.998 41.757,238.444 39.151 C 239.643 38.244,240.096 38.239,240.096 39.136 C 240.096 39.696,240.736 39.856,242.977 39.856 L 245.858 39.856 245.858 29.292 L 245.858 18.727 242.977 18.727 L 240.096 18.727 240.096 22.381 M69.148 22.089 L 69.148 24.490 72.029 24.490 L 74.910 24.490 74.910 32.197 L 74.910 39.904 77.671 39.760 L 80.432 39.616 80.564 32.053 L 80.697 24.490 83.326 24.490 L 85.954 24.490 85.954 22.089 L 85.954 19.688 77.551 19.688 L 69.148 19.688 69.148 22.089 M130.242 29.602 L 130.372 39.616 133.253 39.616 L 136.134 39.616 136.375 36.292 C 136.731 31.362,137.451 31.612,139.876 37.504 C 140.629 39.334,141.838 39.856,145.318 39.856 C 147.761 39.856,146.181 34.258,142.960 31.503 C 142.279 30.920,142.104 30.520,142.473 30.391 C 145.456 29.342,146.982 25.880,145.656 23.166 C 144.365 20.524,142.821 19.981,136.005 19.770 L 130.112 19.589 130.242 29.602 M257.383 29.779 L 257.383 39.906 259.904 39.761 L 262.425 39.616 262.284 33.013 C 262.206 29.382,262.318 26.411,262.532 26.411 C 262.746 26.411,263.674 29.382,264.594 33.013 L 266.267 39.616 268.786 39.761 C 271.809 39.935,271.618 40.245,273.737 31.696 C 274.554 28.397,275.340 25.588,275.483 25.454 C 275.625 25.320,275.663 28.451,275.566 32.413 L 275.390 39.616 278.271 39.616 L 281.152 39.616 281.282 29.652 L 281.412 19.688 277.109 19.688 C 272.035 19.688,272.657 18.989,271.009 26.532 C 270.277 29.883,269.572 32.517,269.441 32.386 C 269.310 32.256,268.536 29.399,267.721 26.038 L 266.239 19.928 261.811 19.790 L 257.383 19.652 257.383 29.779 M353.773 29.424 C 351.995 34.779,350.540 39.328,350.540 39.531 C 350.540 40.999,356.488 39.535,357.025 37.935 L 357.589 36.255 360.604 36.255 L 363.619 36.255 364.163 37.935 C 364.679 39.532,364.826 39.622,367.107 39.741 C 371.039 39.945,371.030 40.160,367.560 29.390 L 364.434 19.688 360.720 19.688 L 357.005 19.688 353.773 29.424 M373.589 29.796 L 373.589 39.904 376.351 39.760 L 379.112 39.616 379.252 36.440 L 379.393 33.263 381.959 32.998 C 387.161 32.462,389.628 29.965,389.303 25.567 C 388.966 21.009,386.467 19.688,378.179 19.688 L 373.589 19.688 373.589 29.796 M391.947 29.652 L 392.077 39.616 394.958 39.616 L 397.839 39.616 397.969 29.652 L 398.099 19.688 394.958 19.688 L 391.817 19.688 391.947 29.652 M318.487 21.927 C 316.718 22.553,316.447 22.835,316.447 24.050 C 316.447 25.130,316.227 25.450,315.486 25.450 C 314.668 25.450,314.526 25.770,314.526 27.611 C 314.526 29.401,314.680 29.772,315.423 29.772 C 316.196 29.772,316.351 30.254,316.544 33.253 C 316.882 38.508,318.377 40.079,322.743 39.767 L 324.850 39.616 324.998 37.575 C 325.134 35.689,325.056 35.534,323.969 35.534 C 322.580 35.534,322.209 34.766,322.209 31.893 C 322.209 29.856,322.266 29.772,323.649 29.772 C 325.037 29.772,325.090 29.692,325.090 27.611 C 325.090 25.530,325.037 25.450,323.649 25.450 C 322.262 25.450,322.209 25.370,322.209 23.289 C 322.209 20.829,321.904 20.717,318.487 21.927 M139.149 24.277 C 140.471 25.203,140.502 26.124,139.256 27.371 C 137.439 29.188,136.375 28.656,136.375 25.930 C 136.375 23.268,137.095 22.838,139.149 24.277 M382.617 24.586 C 384.217 26.186,382.804 28.812,380.344 28.812 C 379.473 28.812,379.352 28.517,379.352 26.411 C 379.352 23.889,380.999 22.968,382.617 24.586 M361.627 28.091 L 362.361 31.693 360.476 31.693 C 358.757 31.693,358.617 31.598,358.877 30.612 C 359.034 30.018,359.418 28.397,359.730 27.011 C 360.483 23.664,360.757 23.820,361.627 28.091 M109.614 25.887 C 102.979 28.985,104.353 38.691,111.566 39.680 C 115.852 40.267,118.127 39.569,118.127 37.666 L 118.127 36.014 115.455 36.014 C 112.771 36.014,110.924 35.420,110.924 34.557 C 110.924 34.294,112.790 34.094,115.246 34.094 L 119.568 34.094 119.568 32.398 C 119.568 26.752,114.649 23.535,109.614 25.887 M162.685 25.445 C 154.085 28.037,156.343 39.856,165.439 39.856 C 168.543 39.856,169.508 39.226,169.508 37.198 L 169.508 35.534 167.181 35.534 C 164.521 35.534,163.265 34.560,163.265 32.495 C 163.265 30.341,164.926 29.126,167.404 29.465 L 169.508 29.754 169.508 27.859 C 169.508 25.140,166.835 24.194,162.685 25.445 M199.958 25.423 C 197.701 25.962,197.359 26.324,197.359 28.171 C 197.359 29.607,197.491 29.820,198.199 29.525 C 200.107 28.731,203.387 28.695,204.023 29.461 C 204.560 30.108,204.457 30.253,203.284 30.500 C 199.523 31.291,197.826 31.875,197.211 32.589 C 193.809 36.533,199.149 42.123,203.243 38.903 C 204.451 37.953,204.454 37.953,204.703 38.903 C 204.911 39.700,205.363 39.856,207.458 39.856 L 209.965 39.856 209.736 34.454 C 209.365 25.723,207.173 23.698,199.958 25.423 M220.235 26.156 C 218.578 27.281,218.487 27.293,218.487 26.396 C 218.487 25.560,218.153 25.450,215.606 25.450 L 212.725 25.450 212.725 32.653 L 212.725 39.856 215.606 39.856 L 218.487 39.856 218.487 35.806 C 218.487 31.090,219.012 29.292,220.387 29.292 C 221.579 29.292,221.811 30.210,221.968 35.534 L 222.089 39.616 224.970 39.616 L 227.851 39.616 227.697 34.814 C 227.398 25.515,225.104 22.852,220.235 26.156 M289.316 25.521 C 283.195 27.770,282.526 36.074,288.242 38.841 C 295.103 42.162,302.417 36.588,299.888 29.965 C 298.458 26.223,293.303 24.055,289.316 25.521 M310.268 26.190 C 308.826 27.404,308.764 27.415,308.764 26.453 C 308.764 25.547,308.484 25.450,305.882 25.450 L 303.001 25.450 303.001 32.653 L 303.001 39.856 305.882 39.856 L 308.764 39.856 308.764 35.561 C 308.764 30.794,309.381 29.772,312.258 29.772 C 313.581 29.772,313.614 29.709,313.472 27.495 C 313.293 24.723,312.430 24.371,310.268 26.190 M148.967 32.533 L 149.100 39.616 151.981 39.616 L 154.862 39.616 154.995 32.533 L 155.128 25.450 151.981 25.450 L 148.834 25.450 148.967 32.533 M326.314 27.229 C 331.875 40.304,332.172 42.557,328.282 42.168 C 325.530 41.893,326.015 45.679,328.803 46.230 C 333.443 47.148,335.058 45.173,339.410 33.253 L 342.259 25.450 339.456 25.450 L 336.652 25.450 336.168 27.251 C 335.902 28.241,335.383 30.348,335.016 31.933 L 334.347 34.814 333.827 32.893 C 333.540 31.837,333.011 29.784,332.651 28.331 L 331.996 25.690 328.767 25.548 L 325.539 25.406 326.314 27.229 M114.196 29.892 C 114.324 30.565,114.015 30.732,112.640 30.732 C 110.838 30.732,110.530 30.358,111.519 29.369 C 112.340 28.548,114.002 28.873,114.196 29.892 M239.520 29.868 C 240.227 30.575,240.274 33.345,239.599 34.605 C 238.474 36.708,235.774 35.258,235.774 32.551 C 235.774 30.122,238.104 28.452,239.520 29.868 M294.090 30.359 C 295.465 32.322,294.439 35.534,292.437 35.534 C 291.364 35.534,290.036 33.807,290.036 32.413 C 290.036 31.019,291.364 29.292,292.437 29.292 C 292.935 29.292,293.679 29.772,294.090 30.359 M204.562 34.066 C 204.562 35.170,202.815 36.531,201.866 36.167 C 200.818 35.765,201.089 34.108,202.281 33.628 C 203.977 32.947,204.562 33.059,204.562 34.066 " stroke="none" fill="#fff" fill-rule="evenodd"></path></g></svg>